<?xml version="1.0" encoding="UTF-8" standalone="no"?>
<!DOCTYPE svg PUBLIC "-//W3C//DTD SVG 1.1//EN" "http://www.w3.org/Graphics/SVG/1.1/DTD/svg11.dtd">
<svg width="100%" height="100%" viewBox="0 0 171 156" version="1.1" xmlns="http://www.w3.org/2000/svg" xmlns:xlink="http://www.w3.org/1999/xlink" xml:space="preserve" xmlns:serif="http://www.serif.com/" style="fill-rule:evenodd;clip-rule:evenodd;stroke-linejoin:round;stroke-miterlimit:2;">
    <g transform="matrix(1,0,0,1,-320,-322)">
        <g transform="matrix(1.06902,0,0,1.00794,3.36757,-12.6233)">
            <g id="symbol-black" serif:id="symbol black" transform="matrix(0.777343,0,0,0.824455,376.68,480.88)">
                <path d="M0,-173.462C2.809,-173.462 5.39,-171.817 6.576,-169.274L29.613,-119.869C30.67,-117.604 30.499,-114.991 29.155,-112.881C27.812,-110.773 25.517,-109.514 23.015,-109.514C20.207,-109.514 17.625,-111.158 16.438,-113.702L-6.598,-163.106C-7.655,-165.372 -7.483,-167.985 -6.14,-170.095C-4.796,-172.203 -2.501,-173.462 0,-173.462M-22.745,-173.462C-19.925,-173.462 -17.333,-171.811 -16.141,-169.255L10.882,-111.299C11.44,-110.102 12.169,-109.017 13.029,-108.061C15.512,-105.225 19.145,-103.514 23.015,-103.514C27.578,-103.514 31.765,-105.811 34.215,-109.658C35.463,-111.617 36.15,-113.814 36.276,-116.043C36.452,-118.31 36.057,-120.618 35.059,-122.759L20.077,-154.892C19.02,-157.157 19.191,-159.771 20.535,-161.881C21.879,-163.99 24.175,-165.25 26.68,-165.25C29.489,-165.25 32.076,-163.608 33.271,-161.066L41.994,-142.511C42.143,-142.113 42.292,-141.715 42.481,-141.327L44.419,-137.354L49.049,-127.506C50.572,-123.558 51.476,-119.414 51.753,-115.224C51.702,-110.099 50.241,-105.011 47.388,-100.511C42.229,-92.371 33.395,-87.505 23.733,-87.491L22.011,-87.489L21.978,-87.489C12.23,-87.489 3.274,-93.193 -0.845,-102.028L-29.333,-163.127C-30.388,-165.389 -30.217,-167.996 -28.876,-170.101C-27.535,-172.205 -25.245,-173.462 -22.745,-173.462M-59.316,-154.1C-56.508,-154.1 -53.927,-152.455 -52.741,-149.91C-52.74,-149.91 -52.74,-149.91 -52.74,-149.909L-46.523,-136.579C-45.467,-134.313 -45.638,-131.7 -46.982,-129.59C-48.325,-127.482 -50.621,-126.223 -53.122,-126.223C-55.93,-126.223 -58.511,-127.867 -59.698,-130.411L-64.835,-141.429C-64.837,-141.431 -64.838,-141.434 -64.839,-141.436L-65.915,-143.742C-66.971,-146.009 -66.8,-148.622 -65.457,-150.731C-64.113,-152.84 -61.817,-154.1 -59.316,-154.1M-76.592,-142.531C-74.483,-142.531 -71.675,-141.9 -70.273,-138.894L-65.136,-127.875C-62.967,-123.227 -58.251,-120.223 -53.122,-120.223C-48.559,-120.223 -44.372,-122.52 -41.921,-126.367C-39.471,-130.215 -39.158,-134.981 -41.086,-139.114L-46.946,-151.681C-48.002,-153.947 -47.831,-156.561 -46.487,-158.67C-45.144,-160.778 -42.849,-162.037 -40.347,-162.037C-37.54,-162.037 -34.958,-160.393 -33.771,-157.849L-24.667,-138.324C-20.148,-128.633 -24.042,-117.18 -33.532,-112.25L-42.707,-107.485C-48.768,-104.338 -55.954,-103.792 -62.419,-105.992C-68.885,-108.19 -74.249,-113 -77.136,-119.19L-83.19,-132.176C-84.247,-134.441 -84.076,-137.054 -82.733,-139.163C-81.389,-141.273 -79.093,-142.531 -76.592,-142.531M-64.171,-77.191C-63.115,-74.925 -63.286,-72.313 -64.63,-70.203C-65.974,-68.094 -68.269,-66.835 -70.77,-66.835C-73.578,-66.835 -76.159,-68.48 -77.346,-71.024L-96.171,-111.396C-97.228,-113.661 -97.057,-116.274 -95.713,-118.383C-94.369,-120.492 -92.074,-121.751 -89.573,-121.751C-86.767,-121.751 -84.188,-120.109 -83,-117.569L-82.573,-116.654C-82.57,-116.648 -82.566,-116.641 -82.563,-116.634L-64.171,-77.191ZM-13.701,-41.684C-16.509,-41.684 -19.09,-43.328 -20.277,-45.873L-33.108,-73.389C-34.165,-75.655 -33.994,-78.269 -32.65,-80.377C-31.306,-82.486 -29.011,-83.746 -26.51,-83.746C-23.702,-83.746 -21.121,-82.102 -19.934,-79.557L-19.405,-78.423L-7.103,-52.04C-6.046,-49.774 -6.217,-47.161 -7.561,-45.053C-8.904,-42.943 -11.2,-41.684 -13.701,-41.684M34.547,-3.368C33.203,-1.259 30.908,0 28.407,0C25.599,0 23.018,-1.645 21.831,-4.19L-14.692,-82.513C-16.86,-87.162 -21.576,-90.167 -26.707,-90.167C-31.268,-90.167 -35.455,-87.87 -37.907,-84.022C-40.357,-80.174 -40.67,-75.409 -38.742,-71.274L-29.773,-52.041C-28.716,-49.774 -28.887,-47.161 -30.231,-45.053C-31.575,-42.943 -33.87,-41.684 -36.371,-41.684C-39.179,-41.684 -41.76,-43.328 -42.947,-45.873L-54.596,-70.854C-59.584,-81.551 -55.287,-94.191 -44.813,-99.63L-39.92,-102.172L-37.375,-103.494C-31.318,-106.632 -24.141,-107.175 -17.68,-104.98C-11.213,-102.78 -5.849,-97.969 -2.963,-91.78L35.005,-10.356C36.063,-8.09 35.891,-5.478 34.547,-3.368M59.363,-30.993C56.5,-30.993 53.878,-32.676 52.685,-35.278C48.293,-44.857 40.148,-62.623 39.434,-64.18C38.919,-65.322 37.776,-66.061 36.521,-66.061C35.511,-66.061 34.565,-65.564 33.99,-64.732C33.959,-64.688 33.93,-64.643 33.902,-64.597C33.375,-63.738 33.311,-62.602 33.736,-61.69L41.364,-45.334C42.417,-43.076 42.246,-40.475 40.908,-38.373C39.569,-36.273 37.283,-35.018 34.792,-35.018C31.958,-35.018 29.354,-36.676 28.155,-39.242L18.804,-59.297C16.59,-64.088 16.931,-69.617 19.722,-74.101C22.521,-78.599 27.356,-81.351 32.664,-81.461C32.76,-81.461 32.856,-81.462 32.941,-81.459C41.879,-81.135 49.78,-75.899 53.56,-67.793L56.364,-61.78C56.479,-61.535 61.482,-50.808 65.922,-41.285C66.972,-39.032 66.802,-36.437 65.467,-34.341C64.132,-32.244 61.851,-30.993 59.363,-30.993M74.91,-46.295L74.875,-46.295C72.135,-46.308 69.614,-47.917 68.451,-50.397L56.15,-76.594C53.674,-81.863 53.103,-87.873 54.542,-93.515L56.375,-100.703C59.161,-111.639 57.972,-123.247 53.026,-133.39L47.875,-143.956C46.802,-146.156 46.936,-148.71 48.234,-150.786C49.53,-152.86 51.765,-154.1 54.213,-154.1L54.216,-154.1C57.054,-154.1 59.663,-152.438 60.862,-149.865L69.585,-131.155C73.231,-123.334 74.358,-114.708 72.843,-106.211L70.623,-93.766C69.489,-87.413 70.331,-80.965 73.056,-75.119L81.598,-56.789C82.671,-54.486 82.495,-51.833 81.124,-49.693C79.759,-47.564 77.439,-46.295 74.91,-46.295M88.193,-66.835C85.397,-66.835 82.829,-68.455 81.612,-70.965L78.495,-77.653C77.775,-79.197 77.235,-80.796 76.843,-82.423C76.765,-83.904 77.143,-85.394 77.97,-86.692C79.308,-88.793 81.595,-90.048 84.089,-90.048C86.921,-90.048 89.526,-88.389 90.724,-85.821L94.768,-77.151C95.821,-74.894 95.65,-72.291 94.312,-70.191C92.973,-68.09 90.687,-66.835 88.193,-66.835M100.206,-79.687L96.162,-88.358C93.982,-93.029 89.243,-96.048 84.086,-96.048C81.405,-96.048 78.866,-95.235 76.722,-93.798L78.75,-105.157C80.483,-114.878 79.194,-124.744 75.023,-133.691L66.3,-152.4C64.121,-157.077 59.377,-160.1 54.216,-160.1L54.213,-160.1C49.715,-160.1 45.609,-157.835 43.202,-154.044L38.701,-163.619C36.522,-168.255 31.803,-171.25 26.677,-171.25C22.114,-171.25 17.927,-168.953 15.475,-165.105C15.407,-164.998 15.358,-164.884 15.293,-164.776L12.014,-171.809C9.847,-176.458 5.131,-179.462 0,-179.462C-4.562,-179.462 -8.75,-177.165 -11.2,-173.318C-11.262,-173.221 -11.307,-173.117 -11.366,-173.018C-13.748,-176.969 -18.072,-179.462 -22.749,-179.462C-27.306,-179.462 -31.488,-177.168 -33.937,-173.324C-35.12,-171.466 -35.793,-169.392 -35.966,-167.28C-37.355,-167.769 -38.832,-168.037 -40.348,-168.037C-44.91,-168.037 -49.097,-165.74 -51.548,-161.894C-52.225,-160.831 -52.722,-159.694 -53.071,-158.524C-54.961,-159.536 -57.1,-160.1 -59.317,-160.1C-63.878,-160.1 -68.065,-157.803 -70.517,-153.954C-71.687,-152.117 -72.355,-150.069 -72.539,-147.982C-73.8,-148.34 -75.156,-148.531 -76.593,-148.531C-81.154,-148.531 -85.341,-146.234 -87.793,-142.387C-90.244,-138.538 -90.556,-133.773 -88.628,-129.64L-87.683,-127.614C-88.304,-127.704 -88.935,-127.751 -89.573,-127.751C-94.134,-127.751 -98.321,-125.454 -100.773,-121.607C-103.225,-117.759 -103.537,-112.993 -101.608,-108.859L-82.784,-68.489C-80.616,-63.839 -75.899,-60.835 -70.77,-60.835C-66.207,-60.835 -62.02,-63.132 -59.569,-66.98C-59.537,-67.031 -59.514,-67.085 -59.483,-67.137L-48.385,-43.338C-46.217,-38.689 -41.501,-35.684 -36.371,-35.684C-31.809,-35.684 -27.622,-37.981 -25.17,-41.829C-25.119,-41.91 -25.082,-41.997 -25.032,-42.079C-22.652,-38.156 -18.349,-35.684 -13.701,-35.684C-9.139,-35.684 -4.952,-37.981 -2.5,-41.829C-2.468,-41.88 -2.445,-41.934 -2.414,-41.985L16.393,-1.654C18.561,2.995 23.276,6 28.407,6C32.969,6 37.157,3.703 39.607,-0.145C42.059,-3.992 42.372,-8.757 40.443,-12.892L32.856,-29.161C33.492,-29.067 34.139,-29.018 34.792,-29.018C39.345,-29.018 43.523,-31.311 45.968,-35.15C46.002,-35.203 46.036,-35.257 46.069,-35.311C46.478,-34.42 46.868,-33.57 47.231,-32.777C49.399,-28.049 54.162,-24.993 59.366,-24.993C63.913,-24.993 68.084,-27.282 70.528,-31.117C72.343,-33.967 72.975,-37.321 72.395,-40.548C73.196,-40.39 74.016,-40.299 74.849,-40.295L74.913,-40.295C79.496,-40.295 83.703,-42.595 86.176,-46.457C88.662,-50.338 88.983,-55.148 87.037,-59.323L86.266,-60.978C86.9,-60.884 87.544,-60.835 88.196,-60.835C92.748,-60.835 96.925,-63.127 99.373,-66.967C101.818,-70.807 102.129,-75.562 100.206,-79.687" style="fill:rgb(19,28,45);fill-rule:nonzero;"/>
            </g>
        </g>
    </g>
</svg>
